<svg width="22" height="22" viewBox="0 0 22 22" fill="none" xmlns="http://www.w3.org/2000/svg">
<path d="M15.2001 2.6H6.8001C4.4805 2.6 2.6001 4.4804 2.6001 6.8V15.2C2.6001 17.5196 4.4805 19.4 6.8001 19.4H15.2001C17.5197 19.4 19.4001 17.5196 19.4001 15.2V6.8C19.4001 4.4804 17.5197 2.6 15.2001 2.6Z" stroke="white" stroke-width="2" stroke-linecap="round" stroke-linejoin="round"/>
<path d="M14.3601 10.4708C14.4637 11.1699 14.3443 11.8839 14.0188 12.5112C13.6933 13.1385 13.1783 13.6472 12.547 13.9649C11.9157 14.2827 11.2003 14.3933 10.5026 14.281C9.80484 14.1687 9.16025 13.8393 8.66052 13.3395C8.16078 12.8398 7.83135 12.1952 7.71907 11.4975C7.60679 10.7997 7.71739 10.0843 8.03513 9.45303C8.35287 8.82176 8.86157 8.30674 9.48888 7.98124C10.1162 7.65574 10.8302 7.53633 11.5293 7.64C12.2423 7.74574 12.9025 8.07803 13.4123 8.58778C13.922 9.09753 14.2543 9.7577 14.3601 10.4708Z" stroke="white" stroke-width="2" stroke-linecap="round" stroke-linejoin="round"/>
<path d="M15.62 6.38H15.6284" stroke="white" stroke-width="2" stroke-linecap="round" stroke-linejoin="round"/>
</svg>
