<svg width="18" height="18" viewBox="0 0 18 18" fill="none" xmlns="http://www.w3.org/2000/svg">
<path fill-rule="evenodd" clip-rule="evenodd" d="M3.49614 2.36799C3.49614 3.32233 2.72249 4.09597 1.76815 4.09597C0.813808 4.09597 0.0401611 3.32233 0.0401611 2.36799C0.0401611 1.41365 0.813808 0.639999 1.76815 0.639999C2.72249 0.639999 3.49614 1.41365 3.49614 2.36799ZM12.1362 5.82384C13.5111 5.82384 14.8296 6.37001 15.8018 7.34219C16.774 8.31437 17.3202 9.63293 17.3202 11.0078V17.0558H13.8642V11.0078C13.8642 10.5495 13.6821 10.11 13.3581 9.78593C13.034 9.46187 12.5945 9.27982 12.1362 9.27982C11.6779 9.27982 11.2384 9.46187 10.9143 9.78593C10.5903 10.11 10.4082 10.5495 10.4082 11.0078V17.0558H6.95223V11.0078C6.95223 9.63293 7.4984 8.31437 8.47058 7.34219C9.44276 6.37001 10.7613 5.82384 12.1362 5.82384ZM3.49614 17.0561V6.6882H0.0401611V17.0561H3.49614Z" fill="white"/>
</svg>
