<svg width="42" height="27" viewBox="0 0 42 27" fill="none" xmlns="http://www.w3.org/2000/svg">
<path d="M32.6959 0.617212C31.1991 0.617211 29.8196 1.37035 29.1739 2.53902L25.0061 9.91463C24.5952 10.6418 24.3898 11.4209 24.3898 12.226L24.3898 23.9906C24.3898 25.419 25.7105 26.5876 27.3248 26.5876L39.065 26.5876C40.6792 26.5876 42 25.419 42 23.9906L42 13.6024C42 12.1741 40.6792 11.0054 39.065 11.0054L33.1949 11.0054L36.218 5.65548C37.5387 3.34411 35.631 0.617212 32.6959 0.617212ZM8.30616 0.61721C6.80929 0.61721 5.42983 1.37035 4.78412 2.53902L0.616358 9.91463C0.205454 10.6418 1.49848e-06 11.4209 1.41894e-06 12.226L2.56589e-07 23.9906C1.15465e-07 25.419 1.32077 26.5876 2.93504 26.5876L14.6752 26.5876C16.2895 26.5876 17.6102 25.419 17.6102 23.9906L17.6102 13.6024C17.6102 12.1741 16.2895 11.0054 14.6752 11.0054L8.80512 11.0054L11.8282 5.65547C13.149 3.34411 11.2412 0.61721 8.30616 0.61721Z" fill="#8EBDC3"/>
</svg>
