<svg width="744" height="86" viewBox="0 0 744 86" fill="none" xmlns="http://www.w3.org/2000/svg">
<path d="M682.306 85.3669L697.371 0L716.74 0C727.74 0 733.718 1.19561 737.783 4.18465C741.848 7.29325 744 12.1953 744 18.532C744 21.2819 743.522 25.5862 742.804 29.8904L737.185 61.6937C734.674 79.1497 726.305 85.7256 706.936 85.3669L682.306 85.3669ZM702.512 71.2586L707.893 71.2586C716.621 71.0195 718.175 69.1065 720.566 55.4765L725.109 29.8904C725.349 28.3361 726.066 21.1624 726.066 19.9668C726.066 15.9017 723.555 14.1083 717.936 14.1083L712.555 14.1083L702.512 71.2586Z" fill="#BB3B28"/>
<path d="M569.17 85.3669L584.234 0L627.755 0L625.244 14.7061L599.419 14.7061L595.712 35.1511L617.473 35.1511L614.962 49.8571L593.202 49.8571L589.376 70.6608L615.918 70.6608L613.407 85.3669L569.17 85.3669Z" fill="#BB3B28"/>
<path d="M477.698 55.3569L472.438 85.3669L454.743 85.3669L469.807 0L489.654 0C498.861 0 503.882 1.19561 507.708 4.30421C511.654 7.53237 513.925 13.5104 513.925 20.3254C513.925 30.249 511.056 40.6509 506.632 46.629C501.85 52.9657 495.872 55.3569 484.633 55.3569L477.698 55.3569ZM479.731 41.1291L484.872 41.1291C489.894 41.1291 492.046 39.3357 493.839 33.7163C495.274 29.2926 496.111 24.8688 496.111 21.4015C496.111 15.7821 494.676 14.1083 489.654 14.1083L484.513 14.1083L479.731 41.1291Z" fill="#BB3B28"/>
<path d="M363.391 55.3569L358.131 85.3669L340.436 85.3669L355.5 0L375.347 0C384.554 0 389.575 1.19561 393.401 4.30421C397.347 7.53237 399.618 13.5104 399.618 20.3254C399.618 30.249 396.749 40.6509 392.325 46.629C387.543 52.9657 381.565 55.3569 370.326 55.3569L363.391 55.3569ZM365.424 41.1291L370.565 41.1291C375.587 41.1291 377.739 39.3357 379.532 33.7163C380.967 29.2926 381.804 24.8688 381.804 21.4015C381.804 15.7821 380.369 14.1083 375.347 14.1083L370.206 14.1083L365.424 41.1291Z" fill="#BB3B28"/>
<path d="M257.913 69.1065L238.065 69.1065L231.729 85.3669L212.599 85.3669L252.054 0L267.597 0L277.64 85.3669L258.63 85.3669L257.913 69.1065ZM257.315 55.1178L256 23.5536L243.565 55.1178L257.315 55.1178Z" fill="#BB3B28"/>
<path d="M124.174 51.0527L118.076 85.3669L100.381 85.3669L115.446 0L136.369 0C146.173 0 150.955 1.07605 154.901 3.94553C158.847 6.93457 161.118 12.4344 161.118 18.7711C161.118 27.7383 158.368 38.1401 154.901 42.803C152.39 46.1507 149.64 48.0637 144.858 49.7376L152.749 85.3669L133.141 85.3669L127.402 51.0527L124.174 51.0527ZM126.087 37.5423L130.989 37.5423C135.532 37.5423 137.565 36.7054 139.238 34.1946C141.51 31.086 142.825 26.184 142.825 21.0428C142.825 15.6626 141.271 14.1083 135.532 14.1083L130.152 14.1083L126.087 37.5423Z" fill="#BB3B28"/>
<path d="M2.63035 85.3669L15.1843 14.7061L0 14.7061L2.51079 0L50.5745 0L48.0637 14.7061L32.8794 14.7061L20.3254 85.3669L2.63035 85.3669Z" fill="#BB3B28"/>
</svg>
